<?xml version="1.0" encoding="iso-8859-1"?>
<!-- Uploaded to: SVG Repo, www.svgrepo.com, Generator: SVG Repo Mixer Tools -->
<svg version="1.1" id="Layer_1" xmlns="http://www.w3.org/2000/svg" xmlns:xlink="http://www.w3.org/1999/xlink" 
	 viewBox="0 0 512 512" xml:space="preserve">
<path d="M355,512H157c-35.2,0-64-28.8-64-64V64c0-35.2,28.8-64,64-64h198c35.2,0,64,28.8,64,64v384C419,483.2,390.2,512,355,512z"/>
<rect x="118" y="60.416" style="fill:#FFFFFF;" width="280" height="376.96"/>
<g>
	<circle style="fill:#CCCCCC;" cx="256" cy="30.176" r="12"/>
	<path style="fill:#CCCCCC;" d="M283.128,488.272h-54.264c-7.496,0-13.568-6.064-13.568-13.568c0-7.496,6.064-13.568,13.568-13.568
		h54.264c7.496,0,13.568,6.064,13.568,13.568C296.696,482.208,290.632,488.272,283.128,488.272z"/>
</g>
<g>
	<rect x="151.216" y="350.296" style="fill:#FF583E;" width="209.6" height="8"/>
	<rect x="174.472" y="377.2" style="fill:#FF583E;" width="163.064" height="8"/>
</g>
<rect x="160" y="112.56" style="fill:#FFD67F;" width="192" height="192"/>
<path d="M252.2,234.136v-22.744c-7.096-2.024-12.296-5.096-15.608-9.2c-3.312-4.112-4.968-9.096-4.968-14.96
	c0-5.936,1.872-10.92,5.616-14.96c3.744-4.032,8.728-6.36,14.96-6.976v-5.376h7.872v5.376c5.752,0.688,10.336,2.648,13.736,5.888
	s5.576,7.576,6.512,13l-13.736,1.792c-0.832-4.272-3.008-7.168-6.512-8.688v21.232c8.688,2.352,14.608,5.4,17.752,9.152
	c3.144,3.744,4.728,8.552,4.728,14.416c0,6.552-1.984,12.072-5.952,16.56c-3.96,4.488-9.472,7.24-16.528,8.256v10.152H252.2v-9.88
	c-6.264-0.76-11.344-3.096-15.256-7.008c-3.912-3.904-6.408-9.424-7.496-16.56l14.176-1.52c0.576,2.896,1.664,5.392,3.256,7.496
	C248.472,231.68,250.24,233.2,252.2,234.136z M252.2,177.128c-2.136,0.72-3.84,1.952-5.104,3.696
	c-1.272,1.736-1.904,3.656-1.904,5.752c0,1.92,0.576,3.704,1.736,5.352c1.16,1.648,2.912,2.976,5.264,3.992v-18.792H252.2z
	 M260.072,234.896c2.712-0.504,4.92-1.768,6.624-3.776c1.704-2.008,2.552-4.368,2.552-7.088c0-2.424-0.72-4.512-2.144-6.272
	c-1.432-1.752-3.768-3.104-7.032-4.048L260.072,234.896L260.072,234.896z"/>
<path d="M316.704,225.496v-15.08c-4.704-1.344-8.152-3.376-10.352-6.104c-2.192-2.728-3.296-6.032-3.296-9.92
	c0-3.936,1.24-7.24,3.728-9.92c2.488-2.672,5.792-4.216,9.92-4.624v-3.56h5.224v3.56c3.816,0.456,6.848,1.76,9.104,3.904
	c2.256,2.152,3.696,5.024,4.32,8.624l-9.104,1.192c-0.552-2.832-1.992-4.752-4.32-5.76v14.08c5.76,1.56,9.68,3.584,11.768,6.064
	s3.136,5.672,3.136,9.56c0,4.344-1.312,8.008-3.944,10.984c-2.624,2.976-6.28,4.8-10.96,5.472v6.728h-5.224v-6.552
	c-4.152-0.504-7.52-2.048-10.112-4.648c-2.592-2.592-4.248-6.248-4.968-10.976l9.4-1.008c0.384,1.92,1.104,3.576,2.16,4.968
	C314.232,223.864,315.408,224.872,316.704,225.496z M316.704,187.696c-1.416,0.48-2.544,1.296-3.384,2.448s-1.256,2.424-1.256,3.816
	c0,1.272,0.384,2.456,1.152,3.544c0.768,1.096,1.936,1.976,3.496,2.648v-12.456H316.704z M321.92,226
	c1.8-0.336,3.264-1.168,4.392-2.504c1.128-1.328,1.696-2.896,1.696-4.696c0-1.608-0.472-2.992-1.424-4.16
	c-0.944-1.16-2.504-2.056-4.664-2.68V226z"/>
<path d="M190.256,225.496v-15.08c-4.704-1.344-8.152-3.376-10.352-6.104c-2.192-2.728-3.296-6.032-3.296-9.92
	c0-3.936,1.24-7.24,3.728-9.92c2.488-2.672,5.792-4.216,9.92-4.624v-3.56h5.224v3.56c3.816,0.456,6.848,1.76,9.104,3.904
	c2.256,2.152,3.696,5.024,4.32,8.624l-9.104,1.192c-0.552-2.832-1.992-4.752-4.32-5.76v14.08c5.76,1.56,9.68,3.584,11.768,6.064
	c2.088,2.48,3.136,5.672,3.136,9.56c0,4.344-1.312,8.008-3.944,10.984c-2.624,2.976-6.28,4.8-10.96,5.472v6.728h-5.224v-6.552
	c-4.152-0.504-7.52-2.048-10.112-4.648c-2.592-2.592-4.248-6.248-4.968-10.976l9.4-1.008c0.384,1.92,1.104,3.576,2.16,4.968
	C187.784,223.864,188.96,224.872,190.256,225.496z M190.256,187.696c-1.416,0.48-2.544,1.296-3.384,2.448s-1.256,2.424-1.256,3.816
	c0,1.272,0.384,2.456,1.152,3.544c0.768,1.096,1.928,1.976,3.496,2.648v-12.456H190.256z M195.48,226
	c1.8-0.336,3.264-1.168,4.392-2.504c1.128-1.328,1.696-2.896,1.696-4.696c0-1.608-0.472-2.992-1.424-4.16
	c-0.944-1.16-2.504-2.056-4.664-2.68V226z"/>
</svg>