<svg width="652" height="552" viewBox="0 0 652 552" fill="none" xmlns="http://www.w3.org/2000/svg">
<g clip-path="url(#clip0_5_39)">
<mask id="mask0_5_39" style="mask-type:luminance" maskUnits="userSpaceOnUse" x="0" y="0" width="652" height="552">
<path d="M651.813 0H0V551.31H651.813V0Z" fill="white"/>
</mask>
<g mask="url(#mask0_5_39)">
<path d="M348.617 77.4367C370.24 61.4631 400.684 55.3395 424.504 67.8012C397.688 79.4446 375.854 100.198 362.866 126.39C357.894 136.509 353.417 148.282 343.158 152.958C336.775 155.869 329.241 155.307 322.63 152.957C316.02 150.607 310.14 146.615 304.342 142.665L302.603 142.456C312.922 117.631 326.993 93.4103 348.617 77.4367Z" fill="#F1E2AD"/>
<path d="M424.313 68.3317C402.072 69.0285 380.616 76.7155 362.992 90.3009C359.146 93.1581 355.775 96.6037 353.002 100.511C350.424 104.404 348.935 108.917 348.691 113.58C348.376 117.923 348.556 122.403 347.191 126.594C346.46 128.729 345.286 130.685 343.746 132.335C342.206 133.984 340.335 135.29 338.255 136.165C333.13 138.482 327.478 138.818 321.939 138.956C315.789 139.108 309.399 139.169 303.806 142.065C303.129 142.415 302.624 141.343 303.3 140.993C313.031 135.955 324.402 139.242 334.629 136.244C339.401 134.845 343.781 131.999 345.697 127.238C347.372 123.074 347.19 118.455 347.471 114.054C347.643 109.502 348.927 105.06 351.21 101.118C353.775 97.0826 357.008 93.5129 360.771 90.5619C369.136 83.7832 378.515 78.3619 388.564 74.4966C400.009 70.0216 412.135 67.5373 424.417 67.1512C425.177 67.1276 425.068 68.3082 424.313 68.3317Z" fill="#211C1D"/>
<path d="M368.409 85.5924C366.531 82.3261 365.876 78.4987 366.559 74.7936C367.243 71.0885 369.221 67.747 372.141 65.3659C372.733 64.8861 373.507 65.7842 372.914 66.2646C370.191 68.4769 368.348 71.5897 367.719 75.0412C367.089 78.4927 367.714 82.0555 369.481 85.0866C369.864 85.7457 368.79 86.2478 368.409 85.5924Z" fill="#211C1D"/>
<path d="M348.561 111.357C355.978 113.43 363.905 112.631 370.759 109.12C371.438 108.772 371.943 109.844 371.265 110.192C364.125 113.832 355.875 114.647 348.161 112.472C347.425 112.264 347.829 111.15 348.561 111.357Z" fill="#211C1D"/>
<path d="M399.953 71.5916C400.416 73.0068 401.223 74.2848 402.303 75.3108C403.382 76.3368 404.699 77.0787 406.136 77.4698C406.873 77.6682 406.468 78.7822 405.736 78.5851C404.15 78.1456 402.697 77.3245 401.502 76.1936C400.307 75.0627 399.407 73.6563 398.881 72.0975C398.819 71.9547 398.814 71.7937 398.867 71.6472C398.919 71.5007 399.025 71.3797 399.164 71.3088C399.306 71.2426 399.469 71.2351 399.616 71.2881C399.764 71.341 399.885 71.4501 399.953 71.5916Z" fill="#211C1D"/>
<path d="M443.391 156.843C442.927 156.732 442.463 156.621 441.991 156.517C435.746 155.06 429.393 154.113 422.994 153.686C422.5 153.645 421.998 153.611 421.504 153.584C406.077 152.718 390.623 154.723 375.929 159.498C370.083 161.404 364.391 163.751 358.901 166.52C351.32 170.345 343.405 175.095 335.243 176.161C334.393 176.281 333.536 176.349 332.677 176.364L302.483 144.593C302.45 144.487 302.411 144.387 302.378 144.28L301.114 143.066C301.387 142.904 301.674 142.741 301.947 142.578C302.105 142.483 302.27 142.395 302.428 142.3C302.536 142.239 302.644 142.179 302.737 142.117C302.773 142.097 302.809 142.077 302.837 142.063C302.931 142.002 303.024 141.955 303.111 141.9C304.711 140.986 306.321 140.082 307.94 139.187C307.947 139.18 307.947 139.18 307.961 139.18C320.314 132.393 333.343 126.577 346.839 122.924C347.246 122.814 347.659 122.697 348.078 122.602C354.171 120.989 360.386 119.877 366.66 119.277C370.097 118.959 373.547 118.815 376.998 118.846C385.915 118.944 394.761 120.444 403.212 123.29C420.058 128.967 434.901 139.969 442.799 155.64C443.001 156.041 443.196 156.435 443.391 156.843Z" fill="#F1E2AD"/>
<path d="M442.92 157.155C424.742 144.32 402.982 137.54 380.732 137.776C375.941 137.742 371.174 138.464 366.608 139.914C362.205 141.47 358.3 144.177 355.297 147.753C352.431 151.031 349.878 154.717 346.264 157.241C344.395 158.506 342.28 159.361 340.058 159.751C337.835 160.141 335.555 160.056 333.367 159.503C327.88 158.267 323.165 155.133 318.66 151.908C313.658 148.327 308.519 144.528 302.31 143.473C301.558 143.345 301.8 142.185 302.551 142.313C313.354 144.149 320.454 153.619 330.425 157.383C335.077 159.139 340.287 159.503 344.684 156.855C348.529 154.54 351.164 150.742 354.038 147.397C356.916 143.866 360.615 141.093 364.812 139.32C369.29 137.642 374.02 136.738 378.801 136.648C389.562 136.272 400.314 137.59 410.665 140.554C422.497 143.871 433.675 149.188 443.714 156.275C444.335 156.714 443.537 157.591 442.92 157.155Z" fill="#211C1D"/>
<path d="M387.892 137.278C388.359 133.54 390.14 130.089 392.916 127.542C395.693 124.996 399.284 123.519 403.049 123.375C403.811 123.349 403.888 124.532 403.125 124.558C399.619 124.685 396.274 126.061 393.693 128.438C391.112 130.815 389.466 134.036 389.052 137.52C388.961 138.277 387.801 138.031 387.892 137.278Z" fill="#211C1D"/>
<path d="M356.532 145.9C361.206 152.021 368.016 156.155 375.603 157.479C376.355 157.609 376.113 158.769 375.362 158.639C367.469 157.247 360.391 152.93 355.541 146.549C355.079 145.941 356.072 145.294 356.532 145.9Z" fill="#211C1D"/>
<path d="M421.507 145.091C421.025 146.5 420.9 148.006 421.144 149.475C421.388 150.944 421.993 152.33 422.905 153.507C423.374 154.109 422.38 154.755 421.914 154.157C420.913 152.851 420.246 151.32 419.973 149.698C419.7 148.076 419.828 146.411 420.347 144.85C420.383 144.698 420.476 144.567 420.606 144.481C420.736 144.396 420.894 144.363 421.047 144.39C421.201 144.423 421.335 144.515 421.421 144.646C421.507 144.777 421.538 144.937 421.507 145.091Z" fill="#211C1D"/>
<path d="M342.912 101.201H340.572V37.0998C340.572 32.2278 339.612 27.4035 337.748 22.9023C335.883 18.4012 333.151 14.3113 329.706 10.8663C326.261 7.42125 322.171 4.68851 317.669 2.82407C313.168 0.959625 308.344 2.62661e-06 303.472 0H167.666C162.794 -1.05056e-05 157.969 0.959592 153.468 2.82402C148.967 4.68845 144.877 7.42119 141.432 10.8662C137.987 14.3112 135.254 18.4011 133.39 22.9022C131.526 27.4034 130.566 32.2277 130.566 37.0997V388.762C130.566 398.601 134.475 408.038 141.432 414.995C148.39 421.953 157.826 425.861 167.666 425.861H303.472C313.311 425.861 322.748 421.953 329.705 414.995C336.663 408.038 340.572 398.601 340.572 388.762V146.829H342.912V101.201Z" fill="#3F3D56"/>
<path d="M304.969 9.65213H287.242C288.057 11.6508 288.368 13.8193 288.148 15.9665C287.928 18.1138 287.183 20.174 285.979 21.9655C284.775 23.757 283.149 25.225 281.244 26.2401C279.339 27.2551 277.213 27.7861 275.055 27.7863H197.253C195.094 27.7861 192.969 27.2551 191.064 26.2401C189.159 25.225 187.533 23.7571 186.329 21.9655C185.125 20.174 184.38 18.1138 184.16 15.9665C183.94 13.8192 184.251 11.6507 185.066 9.6521H168.509C161.161 9.6521 154.114 12.5711 148.918 17.7669C143.722 22.9627 140.803 30.0097 140.803 37.3577V388.504C140.803 392.142 141.52 395.745 142.912 399.106C144.304 402.468 146.345 405.522 148.918 408.095C151.49 410.667 154.545 412.708 157.906 414.1C161.268 415.493 164.87 416.209 168.509 416.209H304.969C308.607 416.209 312.21 415.493 315.571 414.1C318.933 412.708 321.987 410.667 324.56 408.095C327.133 405.522 329.173 402.468 330.566 399.106C331.958 395.745 332.675 392.142 332.675 388.504V37.3577C332.675 30.0097 329.756 22.9627 324.56 17.7669C319.364 12.5711 312.317 9.65212 304.969 9.65213Z" fill="#E0D7C7"/>
<path d="M239.361 303.408C229.312 303.417 219.36 301.445 210.075 297.604C200.789 293.763 192.352 288.128 185.246 281.022C178.141 273.917 172.506 265.48 168.665 256.194C164.824 246.909 162.852 236.957 162.861 226.908C162.847 212.798 166.741 198.959 174.112 186.927C181.483 174.894 192.042 165.139 204.619 158.742C213.736 154.104 223.689 151.337 233.892 150.605C244.094 149.872 254.34 151.189 264.026 154.478C281.179 160.324 295.701 172.068 305.004 187.62C314.308 203.172 317.789 221.521 314.828 239.399C311.867 257.278 302.656 273.525 288.836 285.247C275.016 296.969 257.483 303.405 239.361 303.408ZM239.361 153.408C227.755 153.374 216.31 156.119 205.983 161.414C196.956 166.013 188.977 172.428 182.548 180.258C176.118 188.087 171.376 197.161 168.62 206.91C165.864 216.659 165.153 226.873 166.532 236.909C167.911 246.946 171.349 256.59 176.632 265.234C181.915 273.879 188.929 281.338 197.231 287.143C205.534 292.949 214.947 296.975 224.88 298.97C234.813 300.964 245.051 300.883 254.951 298.733C264.852 296.583 274.2 292.409 282.411 286.473C286.38 283.609 290.051 280.352 293.367 276.752C303.066 266.258 309.495 253.163 311.866 239.071C314.236 224.979 312.446 210.502 306.715 197.412C300.983 184.322 291.559 173.188 279.596 165.372C267.633 157.556 253.651 153.398 239.361 153.408Z" fill="#F0F0F0"/>
<path d="M73.5966 159.017C75.6964 159.28 77.713 160 79.5042 161.127C81.2955 162.254 82.8179 163.76 83.9641 165.539C85.1104 167.318 85.8527 169.327 86.1387 171.424C86.4247 173.521 86.2475 175.655 85.6195 177.676L111.037 198.847L101.938 217.431L66.4639 187.029C63.1388 185.749 60.3987 183.293 58.7628 180.128C57.127 176.963 56.7091 173.307 57.5883 169.854C58.4675 166.402 60.5827 163.391 63.5331 161.394C66.4836 159.396 70.0642 158.551 73.5966 159.017Z" fill="#FFB6B6"/>
<path d="M310.981 247.308C310.471 241.828 308.364 231.978 306.576 228.335C301.079 213.947 265.561 202.122 260.791 200.598L259.581 187.148L210.231 181.838L203.971 199.038L186.271 205.678C185.069 206.126 183.982 206.835 183.086 207.753C182.19 208.671 181.509 209.775 181.091 210.988L165.211 215.578L149.541 220.108L95.1011 181.748L92.5308 183.428L75.3511 194.638L72.7007 196.368L143.151 259.928L169.321 253.788L189.001 249.158L190.681 255.978L186.331 279.938C198.933 292.545 215.615 300.249 233.384 301.67C251.153 303.09 268.846 298.133 283.291 287.688L294.471 277.768C302.263 269.343 308.014 259.239 311.281 248.238L310.981 247.308Z" fill="#211C1D"/>
<path d="M250.412 170.838C269.041 164.67 279.143 144.568 272.975 125.938C266.807 107.309 246.705 97.2067 228.075 103.375C209.446 109.543 199.344 129.645 205.512 148.275C211.68 166.904 231.782 177.006 250.412 170.838Z" fill="#FFB6B6"/>
<path d="M211.177 96.5987C214.631 91.6656 219.815 88.2126 225.699 86.9259C231.516 85.7295 237.57 86.84 242.584 90.023C248.036 87.8268 253.914 86.3698 259.689 87.1105C265.465 87.8512 271.125 91.0772 273.797 96.3918C274.359 97.7685 275.041 99.0932 275.836 100.35C278.19 103.492 282.565 103.899 286.429 104.05C284.476 105.189 282.522 106.329 280.568 107.468C282.515 108.375 284.462 109.283 286.41 110.19C283.76 111.202 281.109 112.214 278.459 113.226C284.628 118.648 286.12 128.298 283.784 136.388C281.573 144.048 276.503 150.496 270.841 156.017C269.737 151.898 270.952 147.432 271.761 143.167C272.615 138.661 272.752 133.392 269.597 130.211C267.469 128.065 264.347 127.416 261.403 126.896C246.554 124.27 231.568 122.49 216.517 121.566C214.502 121.288 212.45 121.497 210.534 122.177C206.871 123.805 205.399 128.275 204.338 132.238C203.829 125.281 204.236 118.288 205.546 111.436C206.55 106.193 208.132 100.944 211.177 96.5987Z" fill="#2F2E41"/>
<path d="M257.361 339.45H215.361C213.902 339.45 212.503 338.871 211.472 337.84C210.44 336.808 209.861 335.409 209.861 333.95C209.861 332.492 210.44 331.093 211.472 330.061C212.503 329.03 213.902 328.45 215.361 328.45H257.361C258.819 328.45 260.218 329.03 261.25 330.061C262.281 331.093 262.861 332.492 262.861 333.95C262.861 335.409 262.281 336.808 261.25 337.84C260.218 338.871 258.819 339.45 257.361 339.45Z" fill="#56453E"/>
<path d="M119.543 45.1252H4.01785C2.95329 45.1235 1.93289 44.6995 1.18073 43.9461C0.428561 43.1928 0.00610352 42.1717 0.00610352 41.1071C0.00610352 40.0426 0.428561 39.0215 1.18073 38.2682C1.93289 37.5148 2.95329 37.0908 4.01785 37.0891H119.543C120.608 37.0891 121.63 37.5124 122.384 38.2659C123.137 39.0195 123.561 40.0415 123.561 41.1071C123.561 42.1728 123.137 43.1948 122.384 43.9483C121.63 44.7019 120.608 45.1252 119.543 45.1252Z" fill="#56453E"/>
<path d="M186.243 70.7883H4.01782C2.95223 70.7883 1.93028 70.365 1.17679 69.6115C0.4233 68.8581 0 67.8361 0 66.7705C0 65.7049 0.4233 64.683 1.17679 63.9295C1.93028 63.176 2.95223 62.7527 4.01782 62.7527H186.243C187.308 62.7527 188.33 63.176 189.084 63.9295C189.837 64.683 190.26 65.7049 190.26 66.7705C190.26 67.8361 189.837 68.8581 189.084 69.6115C188.33 70.365 187.308 70.7883 186.243 70.7883Z" fill="#56453E"/>
<path d="M151.225 94.9656H4.01782C2.95223 94.9656 1.93028 94.5423 1.17679 93.7888C0.423301 93.0353 0 92.0133 0 90.9477C0 89.8821 0.423301 88.8602 1.17679 88.1067C1.93028 87.3532 2.95223 86.9299 4.01782 86.9299H151.225C152.29 86.9299 153.312 87.3532 154.066 88.1067C154.819 88.8602 155.243 89.8821 155.243 90.9477C155.243 92.0133 154.819 93.0353 154.066 93.7888C153.312 94.5423 152.29 94.9656 151.225 94.9656Z" fill="white"/>
<path d="M87.0268 119.054H4.01782C2.95223 119.054 1.93028 118.631 1.17679 117.877C0.423301 117.124 0 116.102 0 115.036C0 113.971 0.423301 112.949 1.17679 112.195C1.93028 111.442 2.95223 111.018 4.01782 111.018H87.0268C88.0924 111.018 89.1143 111.442 89.8678 112.195C90.6213 112.949 91.0446 113.971 91.0446 115.036C91.0446 116.102 90.6213 117.124 89.8678 117.877C89.1143 118.631 88.0924 119.054 87.0268 119.054Z" fill="white"/>
<path d="M132.883 143.14H4.01782C2.95333 143.139 1.93303 142.715 1.18091 141.961C0.428789 141.208 0.00634766 140.187 0.00634766 139.123C0.00634766 138.058 0.428789 137.037 1.18091 136.284C1.93303 135.53 2.95333 135.106 4.01782 135.105H132.883C133.947 135.106 134.968 135.53 135.72 136.284C136.472 137.037 136.894 138.058 136.894 139.123C136.894 140.187 136.472 141.208 135.72 141.961C134.968 142.715 133.947 143.139 132.883 143.14Z" fill="white"/>
<path d="M496.06 536.227L485.706 536.226L480.78 496.288L496.062 496.289L496.06 536.227Z" fill="#9F616A"/>
<path d="M500.134 550.556L460.603 550.555V550.055C460.603 545.974 462.225 542.061 465.11 539.175C467.995 536.29 471.909 534.669 475.99 534.669H475.991L483.211 529.191L496.684 534.669L500.135 534.67L500.134 550.556Z" fill="#2F2E41"/>
<path d="M490.027 348.527L485.46 292.847L481.873 271.949L501.959 267.513L508.624 296.124L502.817 350.072C503.988 351.507 504.703 353.26 504.871 355.105C505.039 356.95 504.651 358.803 503.757 360.426C502.864 362.049 501.505 363.368 499.856 364.213C498.208 365.058 496.344 365.39 494.505 365.168C492.665 364.946 490.935 364.179 489.535 362.966C488.135 361.752 487.129 360.148 486.648 358.359C486.167 356.57 486.231 354.678 486.833 352.926C487.435 351.174 488.547 349.642 490.027 348.527Z" fill="#9F616A"/>
<path d="M441.06 536.227L430.706 536.226L425.78 496.288L441.062 496.289L441.06 536.227Z" fill="#9F616A"/>
<path d="M424.489 361.149L419.899 369.089C419.899 369.089 414.856 370.466 416.504 386.907C418.152 403.348 418.224 500.757 426.202 512.743L427.646 523.036L442.713 524.476L443.093 515.343L461.058 388.459C461.058 388.459 471.639 513.019 480.392 516.067L483.553 526.444L497.361 526.45L496.546 514.221L497.436 359.862L424.489 361.149Z" fill="#2F2E41"/>
<path d="M419.443 368.484L419.125 368.402C428.6 332.966 425.867 287.079 419.177 237.805V237.601L443.361 215.45H464.361L485.179 228.885C498.637 235.614 501.696 249.864 501.725 250.008L501.746 250.109L493.5 278.893L499.712 362.137L499.719 362.233L499.684 362.323C497.673 367.421 492.286 366.695 486.047 365.854C479.82 365.014 456.871 372.692 449.835 372.692C436.084 372.692 420.426 368.736 419.443 368.484Z" fill="#56453E"/>
<path d="M480.819 240.104L489.841 236.18L501.727 250.753L511.361 297.45L478.361 292.45L480.819 240.104Z" fill="#56453E"/>
<path d="M342.06 326.215L383.301 288.53L397.634 272.903L413.434 286.074L394.885 308.855L348.665 337.276C348.246 339.081 347.298 340.719 345.941 341.981C344.584 343.243 342.882 344.07 341.051 344.356C339.221 344.643 337.347 344.376 335.669 343.589C333.992 342.802 332.588 341.532 331.638 339.941C330.688 338.35 330.236 336.512 330.339 334.662C330.442 332.813 331.095 331.036 332.216 329.56C333.336 328.085 334.872 326.978 336.626 326.382C338.38 325.786 340.272 325.728 342.06 326.215Z" fill="#9F616A"/>
<path d="M382.403 288.94L393.825 274.107C393.92 273.894 403.397 252.717 411.611 243.515C420.037 234.077 426.671 238.904 426.737 238.956L426.902 239.08L427.361 273.937L395.733 311.728L382.403 288.94Z" fill="#56453E"/>
<path d="M470.78 194.586C472.483 184.092 465.356 174.204 454.862 172.501C444.367 170.797 434.479 177.924 432.776 188.419C431.073 198.914 438.2 208.802 448.694 210.505C459.189 212.208 469.077 205.081 470.78 194.586Z" fill="#9F616A"/>
<path d="M434.178 188.645C434.178 188.645 434.024 181.877 433.169 178.883C432.313 175.888 430.602 173.321 431.458 173.321C432.313 173.321 432.741 171.182 432.741 171.182C432.741 171.182 433.597 170.755 434.024 171.182C434.452 171.61 434.88 168.188 434.88 168.188C434.88 168.188 435.308 166.904 435.735 167.76C436.163 168.616 436.163 168.188 436.591 166.904C437.019 165.621 439.158 164.765 439.158 164.765C439.158 164.765 447.286 165.193 448.569 163.482C449.853 161.771 464.398 163.054 467.392 165.193C470.387 167.332 483.649 175.033 481.51 181.449C479.371 187.866 473.213 202.641 471.67 204.123C469.23 206.465 467.541 207.31 455.996 209.607C453.737 210.056 442.204 202.681 442.204 201.398C442.204 200.114 443.594 196.044 441.359 195.486C437.981 194.641 437.601 198.912 436.745 197.629C435.89 196.345 434.178 188.645 434.178 188.645Z" fill="#2F2E41"/>
<path d="M445.134 550.556L405.603 550.555V550.055C405.603 545.974 407.225 542.061 410.11 539.175C412.995 536.29 416.909 534.669 420.99 534.669H420.991L428.211 529.191L441.684 534.669L445.135 534.67L445.134 550.556Z" fill="#2F2E41"/>
<path d="M650.622 551.31H3.32812C3.01234 551.31 2.7095 551.185 2.48621 550.962C2.26291 550.738 2.13745 550.436 2.13745 550.12C2.13745 549.804 2.26291 549.501 2.48621 549.278C2.7095 549.054 3.01234 548.929 3.32812 548.929H650.622C650.938 548.929 651.241 549.054 651.464 549.278C651.687 549.501 651.813 549.804 651.813 550.12C651.813 550.436 651.687 550.738 651.464 550.962C651.241 551.185 650.938 551.31 650.622 551.31Z" fill="#D9CEBB"/>
</g>
</g>
<defs>
<clipPath id="clip0_5_39">
<rect width="652" height="552" fill="white"/>
</clipPath>
</defs>
</svg>
